<mxfile host="app.diagrams.net" modified="2023-08-30T20:55:18.006Z" agent="Mozilla/5.0 (Macintosh; Intel Mac OS X 10_15_7) AppleWebKit/537.36 (KHTML, like Gecko) Chrome/114.0.0.0 Safari/537.36 OPR/100.0.0.0" version="21.7.1" etag="JBWYpTb5qTLTH3iSSNPM" type="github">
  <diagram name="PÃ¡gina-1" id="yBuTwChdW6Pn2HGdkiyH">
    <mxGraphModel>
      <root>
        <mxCell id="0" />
        <mxCell id="1" parent="0" />
      </root>
    </mxGraphModel>
  </diagram>
</mxfile>
